<?xml version="1.0" standalone="no"?>
<!DOCTYPE svg PUBLIC "-//W3C//DTD SVG 20010904//EN"
 "http://www.w3.org/TR/2001/REC-SVG-20010904/DTD/svg10.dtd">
<svg version="1.0" xmlns="http://www.w3.org/2000/svg"
 width="192.000000pt" height="192.000000pt" viewBox="0 0 192.000000 192.000000"
 preserveAspectRatio="xMidYMid meet">
<metadata>
Created by potrace 1.14, written by Peter Selinger 2001-2017
</metadata>
<g transform="translate(0.000000,192.000000) scale(0.100000,-0.100000)"
fill="#000000" stroke="none">
<path d="M530 1900 c-30 -11 -56 -25 -58 -30 -2 -6 -10 -10 -17 -10 -19 0 -80
-74 -106 -129 -41 -87 -31 -226 22 -304 49 -71 142 -134 203 -139 29 -3 24
-18 -5 -18 -61 0 -172 -83 -209 -156 -32 -65 -35 -76 -34 -164 1 -56 6 -87 23
-122 41 -85 129 -160 204 -173 45 -9 55 -20 19 -23 -86 -7 -199 -109 -233
-209 -21 -63 -22 -173 -3 -205 5 -7 9 -18 10 -25 4 -27 68 -104 107 -131 68
-46 106 -57 192 -57 69 0 88 4 135 29 77 40 135 107 161 184 12 35 19 74 16
88 -2 13 0 27 5 30 4 3 6 9 4 13 -4 7 -7 62 -6 116 2 47 2 282 1 300 -6 86 -5
142 2 138 4 -2 7 -10 7 -18 0 -8 4 -24 9 -37 5 -13 8 -25 8 -28 -2 -8 33 -50
74 -91 61 -60 121 -83 219 -83 75 -1 92 2 140 28 196 103 238 359 84 512 -41
40 -119 84 -149 84 -8 0 -15 5 -15 10 0 6 8 10 18 10 32 0 117 52 159 99 112
122 106 319 -13 437 -23 22 -64 52 -90 65 -49 24 -49 24 -439 26 -369 3 -393
2 -445 -17z m593 -620 c23 3 53 3 67 -1 14 -4 18 -7 9 -8 -31 -2 -114 -54
-153 -95 -33 -35 -68 -94 -70 -118 -1 -11 -16 -22 -17 -12 -3 58 -3 114 1 114
3 0 3 27 0 59 l-6 59 55 1 c29 0 56 3 60 6 3 4 7 2 9 -3 1 -5 22 -6 45 -2z"/>
</g>
</svg>
