<?xml version="1.0" standalone="no"?>
<!DOCTYPE svg PUBLIC "-//W3C//DTD SVG 20010904//EN"
 "http://www.w3.org/TR/2001/REC-SVG-20010904/DTD/svg10.dtd">
<svg version="1.0" xmlns="http://www.w3.org/2000/svg"
 width="3599.000000pt" height="3599.000000pt" viewBox="0 0 3599.000000 3599.000000"
 preserveAspectRatio="xMidYMid meet">
<metadata>
Created by potrace 1.14, written by Peter Selinger 2001-2017
</metadata>
<g transform="translate(0.000000,3599.000000) scale(0.100000,-0.100000)"
fill="#000000" stroke="none">
<path d="M11699 35986 c-2 -2 -54 -7 -115 -10 -62 -4 -122 -9 -135 -11 -13 -2
-60 -6 -103 -10 -43 -4 -87 -8 -96 -10 -9 -2 -41 -6 -71 -10 -117 -14 -402
-67 -543 -100 -572 -134 -1088 -336 -1607 -627 -358 -201 -792 -519 -1104
-808 -174 -161 -426 -427 -550 -581 -33 -41 -66 -80 -73 -88 -63 -66 -333
-450 -429 -611 -165 -274 -305 -548 -412 -805 -23 -55 -46 -109 -51 -120 -19
-42 -129 -351 -135 -379 -1 -6 -5 -18 -8 -26 -33 -79 -145 -529 -172 -690 -3
-19 -12 -71 -20 -115 -8 -44 -17 -100 -20 -125 -5 -40 -8 -64 -20 -150 -2 -14
-6 -54 -10 -90 -3 -36 -8 -83 -10 -105 -25 -261 -26 -775 -1 -1035 2 -19 7
-71 11 -115 4 -44 9 -87 10 -96 2 -9 6 -40 10 -70 54 -431 182 -933 349 -1367
141 -368 371 -814 579 -1127 321 -482 693 -906 1102 -1254 61 -51 123 -105
138 -118 16 -13 94 -74 175 -134 81 -61 155 -117 165 -125 9 -7 21 -14 25 -14
4 0 30 -17 57 -38 28 -20 62 -43 78 -51 15 -8 27 -18 27 -23 0 -4 4 -8 10 -8
5 0 41 -20 80 -45 253 -162 622 -349 945 -478 229 -91 669 -231 777 -247 4 -1
22 -6 40 -11 18 -6 44 -12 58 -15 13 -3 56 -12 95 -20 81 -18 167 -34 210 -40
17 -2 41 -6 55 -10 14 -3 41 -8 60 -10 19 -2 46 -6 60 -9 14 -2 52 -7 85 -10
33 -4 74 -9 90 -12 17 -3 48 -6 70 -8 22 -2 71 -6 109 -10 77 -8 144 -12 230
-14 82 -1 66 -10 -30 -16 -144 -8 -259 -16 -284 -20 -14 -2 -50 -6 -80 -10
-30 -3 -71 -8 -90 -10 -19 -3 -55 -7 -80 -10 -25 -3 -56 -7 -70 -10 -14 -2
-38 -7 -55 -10 -16 -3 -39 -7 -50 -9 -11 -2 -40 -7 -65 -11 -51 -8 -46 -7
-155 -30 -302 -62 -747 -196 -980 -295 -11 -5 -65 -28 -120 -51 -274 -114
-550 -257 -825 -426 -90 -56 -263 -170 -295 -196 -5 -4 -50 -37 -99 -73 -151
-111 -286 -220 -421 -339 -91 -80 -418 -404 -485 -481 -25 -28 -70 -79 -100
-114 -134 -153 -375 -477 -487 -655 -198 -315 -389 -676 -485 -920 -11 -27
-26 -63 -33 -80 -29 -65 -125 -337 -169 -478 -40 -131 -121 -439 -132 -507 -2
-14 -9 -45 -14 -70 -12 -57 -38 -203 -45 -255 -3 -22 -8 -51 -10 -65 -11 -62
-21 -147 -40 -345 -25 -249 -25 -847 0 -1045 1 -14 6 -56 9 -95 4 -38 9 -81
11 -95 2 -14 7 -47 10 -75 14 -117 39 -270 66 -400 12 -55 23 -111 25 -125 3
-14 7 -33 10 -42 3 -9 7 -25 9 -35 22 -101 125 -463 144 -508 5 -11 19 -49 31
-85 11 -36 25 -74 30 -85 4 -11 27 -69 51 -130 77 -202 235 -536 329 -700 13
-22 30 -54 39 -70 31 -60 106 -180 113 -183 5 -2 8 -8 8 -13 0 -11 159 -252
224 -339 22 -30 50 -69 62 -85 11 -17 28 -39 37 -50 9 -11 50 -63 92 -115 208
-260 529 -591 765 -790 36 -30 67 -58 70 -61 13 -15 255 -203 337 -261 173
-124 408 -275 558 -358 152 -85 382 -201 495 -250 41 -18 98 -42 125 -55 229
-103 713 -258 995 -320 33 -7 176 -37 190 -40 37 -7 88 -15 125 -20 22 -4 47
-8 55 -10 14 -4 45 -9 128 -20 20 -3 53 -7 72 -10 136 -18 271 -30 455 -41
110 -6 138 -14 54 -15 -87 -1 -285 -14 -364 -24 -16 -3 -55 -7 -85 -10 -62 -6
-72 -8 -190 -25 -47 -7 -95 -14 -107 -15 -12 -2 -34 -6 -50 -9 -15 -4 -39 -8
-53 -11 -14 -3 -59 -12 -100 -20 -41 -8 -85 -17 -98 -20 -13 -2 -31 -6 -40 -9
-9 -3 -28 -7 -42 -10 -22 -4 -220 -56 -335 -88 -82 -23 -465 -158 -520 -183
-16 -8 -53 -23 -81 -34 -200 -77 -578 -271 -829 -426 -265 -163 -636 -438
-830 -616 -214 -196 -387 -370 -530 -533 -33 -38 -65 -74 -70 -80 -9 -9 -116
-142 -199 -246 -6 -8 -45 -62 -86 -120 -41 -58 -77 -107 -80 -110 -3 -3 -42
-61 -86 -130 -280 -433 -496 -878 -655 -1350 -87 -259 -169 -557 -185 -675 -2
-16 -6 -36 -9 -44 -3 -8 -8 -30 -11 -50 -3 -20 -9 -52 -14 -71 -4 -19 -12 -57
-16 -85 -4 -27 -8 -55 -9 -61 -2 -6 -6 -36 -9 -66 -4 -31 -8 -64 -10 -74 -2
-11 -7 -48 -11 -84 -3 -36 -8 -76 -10 -90 -19 -128 -28 -320 -29 -595 0 -223
9 -503 19 -555 1 -8 6 -49 9 -91 4 -42 9 -89 11 -105 13 -77 15 -93 20 -144 3
-30 8 -62 10 -70 2 -8 7 -35 10 -60 3 -25 8 -52 10 -60 2 -8 7 -28 9 -45 41
-238 132 -585 220 -835 21 -58 38 -109 40 -115 2 -5 6 -17 9 -25 4 -8 22 -55
41 -105 69 -182 241 -553 323 -695 11 -19 40 -69 63 -110 74 -129 280 -452
301 -470 3 -3 20 -26 38 -53 215 -316 659 -794 1001 -1077 41 -34 86 -72 100
-84 14 -11 70 -55 125 -96 55 -41 102 -77 105 -80 21 -21 327 -224 440 -292
278 -167 559 -307 855 -426 260 -104 692 -241 880 -278 11 -2 29 -6 40 -8 121
-27 181 -38 305 -59 80 -14 168 -28 195 -31 369 -45 442 -50 805 -51 304 0
472 8 670 31 30 3 72 8 92 10 36 3 80 10 128 19 14 3 43 7 65 10 96 12 290 51
475 96 91 22 172 42 180 44 143 34 584 189 760 267 25 11 77 34 115 51 176 77
630 321 676 363 8 8 19 14 23 14 4 0 19 9 34 19 15 10 65 44 112 75 47 31 96
64 110 73 44 30 327 241 341 255 8 7 41 36 74 63 33 28 71 59 84 70 191 160
536 516 721 745 25 30 49 60 55 67 23 26 65 82 148 197 48 66 91 126 95 131
15 19 106 160 159 245 161 262 336 604 433 845 17 44 36 89 41 100 61 137 223
642 244 764 3 19 8 37 10 41 2 4 12 42 21 86 9 43 18 88 20 99 7 33 33 168 38
200 23 140 41 275 51 375 3 30 8 73 10 95 6 53 17 215 20 290 1 33 3 2739 4
6014 0 3275 3 5952 5 5950 2 -2 7 -56 11 -119 4 -63 8 -128 10 -145 2 -16 7
-60 10 -96 3 -36 7 -75 9 -85 2 -10 7 -48 12 -84 4 -36 8 -67 9 -70 1 -3 5
-30 9 -60 5 -30 10 -64 12 -75 2 -11 13 -69 25 -130 76 -408 229 -889 413
-1302 68 -152 232 -473 278 -543 9 -14 25 -41 35 -60 96 -177 352 -540 551
-778 126 -153 135 -163 282 -315 180 -186 281 -283 440 -417 36 -30 67 -57 70
-60 14 -15 244 -192 305 -235 39 -27 72 -52 75 -55 24 -26 398 -259 555 -345
197 -108 490 -245 695 -324 47 -18 99 -39 115 -46 120 -51 627 -200 755 -222
14 -2 52 -10 85 -18 33 -7 76 -16 95 -19 19 -3 46 -8 60 -11 63 -12 148 -27
175 -31 17 -2 62 -8 100 -13 39 -6 99 -13 135 -17 36 -3 72 -7 80 -9 8 -2 62
-6 120 -10 58 -4 128 -9 155 -11 67 -5 531 -5 625 1 69 3 140 9 280 21 30 2
89 9 130 14 41 5 91 12 110 14 88 11 312 51 405 71 39 9 84 18 100 22 119 23
447 117 635 182 299 103 772 318 999 455 51 31 96 56 98 56 5 0 64 37 233 148
104 68 295 203 345 244 11 9 71 58 133 108 62 50 129 105 149 123 20 18 61 54
92 82 138 122 470 465 562 582 17 21 34 40 38 43 3 3 22 25 41 50 19 25 37 47
40 50 8 7 179 236 209 280 233 342 402 635 526 910 30 69 60 133 65 142 6 10
28 64 50 120 23 57 45 112 50 123 35 77 136 385 185 565 38 138 88 354 99 422
3 21 10 57 15 80 5 24 12 63 16 88 3 25 8 56 10 70 3 14 7 39 9 55 2 17 7 48
11 70 8 52 12 85 20 175 4 41 9 89 10 105 24 247 24 915 1 1041 -2 11 -7 51
-10 89 -17 177 -54 417 -102 653 -62 309 -207 763 -349 1097 -106 247 -324
663 -426 811 -16 24 -29 45 -29 48 0 4 -15 28 -33 54 -19 26 -53 76 -77 112
-49 72 -171 242 -180 250 -3 3 -30 37 -59 75 -137 177 -263 318 -481 535 -211
212 -359 343 -539 480 -18 14 -38 30 -44 36 -34 30 -259 189 -382 269 -189
123 -386 236 -590 338 -150 74 -210 102 -355 164 -19 8 -44 19 -55 24 -215 95
-679 239 -965 300 -52 11 -104 22 -115 25 -11 2 -56 11 -100 19 -154 28 -187
33 -250 40 -27 4 -61 8 -75 10 -79 11 -111 15 -170 20 -36 3 -94 7 -130 10
-36 3 -107 7 -159 10 -109 5 -134 15 -40 16 35 0 87 2 114 4 234 17 284 22
335 30 22 4 79 11 160 20 26 3 287 50 330 59 14 3 50 11 80 17 288 58 717 194
1045 331 196 82 572 270 695 348 8 5 40 23 70 41 30 18 107 66 170 107 478
314 840 628 1251 1082 17 19 68 80 113 135 490 595 849 1250 1085 1978 46 144
120 412 140 508 30 148 60 300 65 334 4 22 8 51 11 65 2 14 9 61 15 105 6 44
13 91 15 105 2 14 7 59 11 100 3 41 8 89 9 105 24 243 24 917 1 1042 -2 10 -7
52 -11 93 -14 139 -28 253 -40 310 -2 13 -7 42 -10 65 -7 48 -32 183 -46 246
-6 26 -12 53 -13 60 -2 8 -6 28 -10 44 -5 17 -19 75 -32 130 -47 196 -164 563
-223 700 -4 11 -37 88 -71 170 -350 836 -930 1625 -1636 2225 -73 63 -102 87
-133 110 -18 14 -38 30 -44 35 -79 71 -421 309 -597 415 -205 124 -509 283
-675 354 -22 10 -53 23 -70 31 -67 29 -104 44 -185 75 -47 18 -105 40 -130 50
-140 56 -634 199 -770 223 -14 3 -60 12 -102 21 -42 9 -94 18 -115 21 -21 3
-49 8 -63 11 -14 2 -36 7 -50 9 -14 3 -45 7 -70 10 -25 3 -56 8 -70 10 -14 2
-50 7 -80 11 -30 3 -66 8 -80 9 -14 2 -63 6 -110 10 -47 4 -101 10 -120 13
-38 6 -12704 14 -12711 8z m108 -11992 c-3 -3 -12 -4 -19 -1 -8 3 -5 6 6 6 11
1 17 -2 13 -5z m11833 -6 c0 -5 -24 -9 -52 -9 -29 -1 -62 -3 -73 -4 -11 -1
-54 -5 -95 -9 -41 -3 -86 -8 -100 -10 -14 -3 -52 -7 -85 -11 -77 -8 -125 -14
-151 -20 -12 -3 -39 -7 -60 -10 -108 -15 -388 -72 -469 -96 -16 -4 -42 -10
-56 -13 -47 -8 -438 -125 -484 -145 -11 -5 -72 -28 -135 -51 -220 -80 -576
-243 -774 -354 -315 -178 -555 -337 -821 -545 -121 -94 -128 -100 -259 -216
-172 -150 -373 -351 -533 -531 -51 -58 -215 -254 -241 -289 -4 -5 -41 -55 -83
-110 -241 -319 -502 -768 -669 -1150 -33 -77 -65 -149 -70 -160 -63 -141 -225
-633 -255 -775 -2 -8 -12 -53 -24 -100 -23 -98 -53 -245 -75 -375 -28 -171
-33 -205 -52 -370 -3 -33 -8 -73 -10 -90 -2 -16 -6 -82 -10 -145 -3 -63 -8
-117 -10 -119 -2 -2 -4 1282 -4 2855 l0 2859 2825 0 c1554 0 2825 -3 2825 -7z
m54 0 c-2 -3 -13 -6 -24 -5 -24 2 -18 13 9 13 11 0 18 -4 15 -8z m-11867
-11994 c-3 -3 -12 -4 -19 -1 -8 3 -5 6 6 6 11 1 17 -2 13 -5z"/>
</g>
</svg>
